# AST/ASF file generated using VICON BodyLanguage
# -----------------------------------------------
:version 1.10
:name VICON
:units
  mass 1.0
  length 0.45
  angle deg
:documentation
   .ast/.asf automatically generated from VICON data using
   VICON BodyBuilder and BodyLanguage model FoxedUp or BRILLIANT.MOD
:root
   order TX TY TZ RX RY RZ
   axis XYZ
   position 0 0 0  
   orientation 0 0 0 
:bonedata
  begin
     id 1 
     name lhipjoint
     direction 0.567725 -0.736092 0.368589 
     length 2.42353 
     axis 0 0 0  XYZ
  end
  begin
     id 2 
     name lfemur
     direction 0.34202 -0.939693 0  
     length 7.24894  
     axis 0 0 20  XYZ
    dof rx ry rz
    limits (-160.0 20.0)
           (-70.0 70.0)
           (-60.0 70.0)
  end
  begin
     id 3 
     name ltibia
     direction 0.34202 -0.939693 0   
     length 7.6997   
     axis 0 0 20   XYZ
    dof rx
    limits (-10.0 170.0)
  end
  begin
     id 4 
     name lfoot
     direction 0.100767 -0.276854 0.955614   
     length 2.37556   
     axis -90 7.62852e-016 20   XYZ
    dof rx rz
    limits (-45.0 90.0)
           (-70.0 20.0)
  end
  begin
     id 5 
     name ltoes
     direction 1.53592e-011 -4.21894e-011 1   
     length 1.18363   
     axis -90 7.62852e-016 20   XYZ
    dof rx
    limits (-90.0 20.0)
  end
  begin
     id 6 
     name rhipjoint
     direction -0.556459 -0.742938 0.372017   
     length 2.4012  
     axis 0 0 0  XYZ 
  end
  begin
     id 7 
     name rfemur
     direction -0.34202 -0.939693 0   
     length 7.5119   
     axis 0 0 -20   XYZ
    dof rx ry rz
    limits (-160.0 20.0)
           (-70.0 70.0)
           (-70.0 60.0)
  end
  begin
     id 8 
     name rtibia
     direction -0.34202 -0.939693 0   
     length 7.50155   
     axis 0 0 -20   XYZ
    dof rx
    limits (-10.0 170.0)
 end
 begin
     id 9 
     name rfoot
     direction -0.118427 -0.325376 0.938139   
     length 2.32487  
     axis -90 -7.62852e-016 -20   XYZ
    dof rx rz
    limits (-45.0 90.0)
           (-20.0 70.0)
  end
  begin
     id 10 
     name rtoes
     direction -1.53525e-011 -4.21868e-011 1   
     length 1.15233   
     axis -90 -7.62852e-016 -20   XYZ
    dof rx
    limits (-90.0 20.0)
  end
  begin
     id 11 
     name lowerback
     direction 0.0287568 0.999577 -0.00434502   
     length 2.15243   
     axis 0 0 0   XYZ
    dof rx ry rz
    limits (-20.0 45.0)
           (-30.0 30.0)
           (-30.0 30.0)
  end
  begin
     id 12 
     name upperback
     direction 0.0294009 0.99956 0.00404628   
     length 2.15427   
     axis 0 0 0   XYZ
    dof rx ry rz
    limits (-20.0 45.0)
           (-30.0 30.0)
           (-30.0 30.0)
  end
  begin
     id 13 
     name thorax
     direction 0.0151014 0.999868 0.0059419   
     length 2.14898   
     axis 0 0 0   XYZ
    dof rx ry rz
    limits (-20.0 45.0)
           (-30.0 30.0)
           (-30.0 30.0)
  end
  begin
     id 14 
     name lowerneck
     direction -0.0249197 0.989906 0.139515   
     length 1.6861   
     axis 0 0 0   XYZ
    dof rx ry rz
    limits (-20.0 45.0)
           (-30.0 30.0)
           (-30.0 30.0)
  end
  begin
     id 15 
     name upperneck
     direction 0.0438463 0.988795 -0.142693   
     length 1.71276   
     axis 0 0 0   XYZ
    dof rx ry rz
    limits (-20.0 45.0)
           (-30.0 30.0)
           (-30.0 30.0)
  end
  begin
     id 16
     name head
     direction 0.0148499 0.997845 -0.0639186  
     length 1.7209  
     axis 0 0 0   XYZ
    dof rx ry rz
    limits (-20.0 45.0)
           (-30.0 30.0)
           (-30.0 30.0)
  end
  begin
     id 17 
     name lclavicle
     direction 0.940298 0.323464 -0.105876  
     length 3.9048  
     axis 0 0 0   XYZ
    dof ry rz
    limits (-20.0 10.0)
           (0.0 20.0)
  end
  begin
     id 18 
     name lhumerus
     direction 1 -4.48954e-011 -4.9675e-028   
     length 4.6851   
     axis 180 -30 -90   XYZ
    dof rx ry rz
    limits (-60.0 90.0)
           (-90.0 90.0)
           (-90.0 90.0)
  end
  begin
     id 19
     name lradius
     direction 1 -4.48992e-011 -1.03359e-026   
     length 3.39626   
     axis 180 -30 -90   XYZ
    dof rx
    limits (-10.0 170.0)
  end
  begin
     id 20
     name lwrist
     direction 1 -4.48906e-011 -1.67336e-026   
     length 1.69813   
     axis 9.90442e-015 90 90   XYZ
    dof ry
    limits (-180.0 0.0)
 end
  begin
     id 21 
     name lhand
     direction 1 -4.49006e-011 -3.34673e-026   
     length 0.486078   
     axis 2.1355e-014 90 90   XYZ
    dof rx rz
    limits (-90.0 90.0)
           (-45.0 45.0)
  end
  begin
     id 22 
     name lfingers
     direction 1 -4.48992e-011 -6.69345e-026   
     length 0.391889   
     axis 4.27099e-014 90 90   XYZ
    dof rx
    limits (0.0 90.0)
  end
  begin
     id 23
     name lthumb
     direction 0.707107 -6.34926e-011 0.707107   
     length 0.562676   
     axis -90 45 2.85299e-015   XYZ
    dof rx rz
    limits (-45.0 45.0)
           (-45.0 45.0)
  end
  begin
     id 24 
     name rclavicle
     direction -0.882459 0.414895 -0.221648   
     length 3.44646  
     axis 0 0 0   XYZ 
    dof ry rz
    limits (-10.0 20.0)
           (-20.0 0.0)
  end
  begin
     id 25 
     name rhumerus
     direction -1 -4.48962e-011 -2.37984e-027  
     length 5.55576   
     axis 180 30 90   XYZ
    dof rx ry rz
    limits (-90.0 60.0)
           (-90.0 90.0)
           (-90.0 90.0)
  end
  begin
     id 26 
     name rradius
     direction -1 -4.48982e-011 -6.86791e-027   
     length 3.32774   
     axis 180 30 90   XYZ
    dof rx
    limits (-10.0 170.0)
  end
  begin
     id 27 
     name rwrist
     direction -1 -4.48961e-011 -1.67336e-026   
     length 1.66387   
     axis 9.90442e-015 -90 -90   XYZ
    dof ry
    limits (-180.0 0.0)
  end
  begin
     id 28
     name rhand
     direction -1 -4.4897e-011 -3.34673e-026   
     length 0.507628   
     axis 2.1355e-014 -90 -90   XYZ
    dof rx rz
    limits (-90.0 90.0)
           (-45.0 45.0)
  end
  begin
     id 29
     name rfingers
     direction -1 -4.48854e-011 -6.69345e-026   
     length 0.409263   
     axis 4.27099e-014 -90 -90   XYZ
    dof rx
    limits (0.0 90.0)
  end
  begin
     id 30
     name rthumb
     direction -0.707107 -6.34913e-011 0.707107   
     length 0.587622   
     axis -90 -45 -2.85299e-015   XYZ
    dof rx rz
    limits (-45.0 45.0)
           (-45.0 45.0)
  end
:hierarchy
  begin
    root lhipjoint rhipjoint lowerback
    lhipjoint lfemur
    lfemur ltibia
    ltibia lfoot
    lfoot ltoes
    rhipjoint rfemur
    rfemur rtibia
    rtibia rfoot
    rfoot rtoes
    lowerback upperback
    upperback thorax
    thorax lowerneck lclavicle rclavicle
    lowerneck upperneck
    upperneck head
    lclavicle lhumerus
    lhumerus lradius
    lradius lwrist
    lwrist lhand lthumb
    lhand lfingers
    rclavicle rhumerus
    rhumerus rradius
    rradius rwrist
    rwrist rhand rthumb
    rhand rfingers
  end

#!OML:ASF E:\motion texture\Top Level 1\Subject 1\Session 1\male.ASF
:FULLY-SPECIFIED
:DEGREES
66
root 23.7968 17.8054 5.32292 79.7053 -81.4582 -75.8479
lowerback -1.29275 -0.614105 5.78168
upperback -0.816227 -1.05557 5.73514
thorax -0.104386 -0.610008 2.65856
lowerneck -10.7052 -2.78034 -7.60425
upperneck 2.76693 -3.4746 11.645
head 2.9192 -1.40581 4.59818
rclavicle -9.0944e-015 7.07673e-014
rhumerus -26.6333 13.5895 -89.3278
rradius 69.1904
rwrist -2.15349
rhand -11.193 -29.5046
rfingers 7.12502
rthumb 14.8346 -58.9535
lclavicle -9.0944e-015 7.07673e-014
lhumerus -27.3815 -6.85421 94.881
lradius 39.0183
lwrist -21.7941
lhand -12.4485 14.9094
lfingers 7.12502
lthumb 13.6247 44.4435
rfemur -13.132 2.74815 32.4104
rtibia 20.5166
rfoot -7.56922 -14.1709
rtoes 15.6255
lfemur -16.7724 1.68376 -6.44475
ltibia 62.2221
lfoot 2.66455 -1.52301
ltoes -15.2245
67
root 23.6494 17.8241 5.30664 81.5181 -81.4285 -77.743
lowerback -1.34346 -0.407701 5.88509
upperback -0.828875 -0.782304 5.64035
thorax -0.0928238 -0.472564 2.50497
lowerneck -10.7027 -2.74517 -7.55996
upperneck 2.9238 -3.45215 11.7303
head 2.96469 -1.38844 4.61907
rclavicle -4.96962e-016 3.97569e-014
rhumerus -26.5048 13.538 -89.136
rradius 70.5757
rwrist -2.35761
rhand -10.8858 -28.8934
rfingers 7.12502
rthumb 15.1305 -58.3203
lclavicle -4.96962e-016 3.97569e-014
lhumerus -28.0581 -5.9438 94.3583
lradius 38.542
lwrist -21.6508
lhand -12.552 15.3573
lfingers 7.12502
lthumb 13.525 44.8981
rfemur -12.0838 2.93216 32.6415
rtibia 19.801
rfoot -7.72506 -14.0645
rtoes 15.5191
lfemur -17.7523 2.16833 -6.28833
ltibia 62.5031
lfoot 1.38314 -1.03143
ltoes -15.3785
68
root 23.5037 17.8418 5.29197 83.1952 -81.3769 -79.4917
lowerback -1.38236 -0.206367 6.02086
upperback -0.847319 -0.514749 5.5404
thorax -0.0923506 -0.338425 2.3286
lowerneck -10.7102 -2.71248 -7.52265
upperneck 3.08022 -3.43203 11.8173
head 3.01203 -1.37187 4.64154
rclavicle 1.39149e-015 2.46493e-014
rhumerus -26.3227 13.4456 -88.9066
rradius 71.8905
rwrist -2.50648
rhand -10.5529 -28.2841
rfingers 7.12502
rthumb 15.4511 -57.6866
lclavicle 1.39149e-015 2.46493e-014
lhumerus -28.7158 -4.95888 93.7588
lradius 38.0238
lwrist -21.523
lhand -12.7355 15.8142
lfingers 7.12502
lthumb 13.3481 45.3667
rfemur -11.0524 3.0912 32.8707
rtibia 19.0843
rfoot -7.87596 -13.9468
rtoes 15.4349
lfemur -18.7302 2.60828 -6.1379
ltibia 62.6471
lfoot 0.0858525 -0.531193
ltoes -15.5293
69
root 23.3598 17.8583 5.27888 84.7258 -81.3053 -81.0812
lowerback -1.40763 -0.0120207 6.19165
upperback -0.87573 -0.254958 5.43371
thorax -0.107906 -0.208815 2.12623
lowerneck -10.722 -2.6792 -7.4917
upperneck 3.23666 -3.41059 11.907
head 3.06012 -1.3544 4.66608
rclavicle 6.4605e-016 -7.95139e-016
rhumerus -26.091 13.3177 -88.6465
rradius 73.1276
rwrist -2.61112
rhand -10.2753 -27.6045
rfingers 7.12502
rthumb 15.7185 -56.9862
lclavicle 6.4605e-016 -7.95139e-016
lhumerus -29.3651 -3.9046 93.0785
lradius 37.4736
lwrist -21.428
lhand -12.9006 16.3551
lfingers 7.12502
lthumb 13.189 45.9179
rfemur -10.047 3.23144 33.0993
rtibia 18.375
rfoot -8.01922 -13.8279
rtoes 15.3545
lfemur -19.7081 3.00553 -5.99119
ltibia 62.6554
lfoot -1.1866 -0.0296665
ltoes -15.6219
70
root 23.2174 17.8735 5.26697 86.0682 -81.2182 -82.4678
lowerback -1.43561 0.174174 6.38676
upperback -0.905568 -0.00664392 5.32101
thorax -0.121104 -0.0851675 1.90433
lowerneck -10.7476 -2.64709 -7.4642
upperneck 3.3907 -3.38989 11.9985
head 3.10993 -1.33683 4.6917
rclavicle -1.30452e-015 1.43125e-014
rhumerus -25.7881 13.1554 -88.352
rradius 74.2752
rwrist -2.6834
rhand -10.1015 -26.8569
rfingers 7.12502
rthumb 15.8859 -56.2253
lclavicle -1.30452e-015 1.43125e-014
lhumerus -29.9864 -2.77533 92.3083
lradius 36.8724
lwrist -21.4269
lhand -13.0693 16.9142
lfingers 7.12502
lthumb 13.0264 46.4874
rfemur -9.07098 3.36117 33.327
rtibia 17.6725
rfoot -8.15373 -13.7268
rtoes 15.2621
lfemur -20.6843 3.35695 -5.84796
ltibia 62.527
lfoot -2.39935 0.479446
ltoes -15.6017
